<svg width="30" height="30" viewBox="0 0 30 30" fill="none" xmlns="http://www.w3.org/2000/svg">
<circle cx="15" cy="15" r="14.5" fill="#E7DEFF" stroke="#E7DEFF"/>
<path d="M11.6271 10.6449V6.71852C11.6271 5.76941 12.3965 5 13.3456 5H16.2902C17.2393 5 18.0087 5.76941 18.0087 6.71852V10.6449C18.0087 11.594 18.7782 12.3634 19.7273 12.3634H23.6537C24.6028 12.3634 25.3722 13.1329 25.3722 14.082V16.5357C25.3722 17.4848 24.6028 18.2542 23.6537 18.2542H19.7273C18.7782 18.2542 18.0087 19.0236 18.0087 19.9727V23.6537C18.0087 24.6028 17.2393 25.3722 16.2902 25.3722H13.3456C12.3965 25.3722 11.6271 24.6028 11.6271 23.6537V19.7273C11.6271 18.7782 10.8577 18.0087 9.90858 18.0087H6.71852C5.76941 18.0087 5 17.2393 5 16.2902V14.082C5 13.1328 5.76941 12.3634 6.71852 12.3634H9.90858C10.8577 12.3634 11.6271 11.594 11.6271 10.6449Z" fill="#6938EF"/>
</svg>
