<svg width="24" height="24" viewBox="0 0 24 24" fill="none" xmlns="http://www.w3.org/2000/svg">
<path d="M21.0001 14.6452C21.0362 14.5931 21.0709 14.5392 21.1065 14.4886C22.0131 13.1412 22.4982 11.5545 22.5001 9.93047C22.5151 5.27578 18.5879 1.5 13.7316 1.5C9.49602 1.5 5.96258 4.38234 5.13477 8.20875C5.01058 8.77584 4.94772 9.35463 4.94727 9.93516C4.94727 14.5945 8.72352 18.4716 13.5798 18.4716C14.3518 18.4716 15.392 18.2395 15.9624 18.083C16.5329 17.9264 17.0982 17.7197 17.2445 17.6639C17.3907 17.6081 17.6195 17.5509 17.8018 17.6034L21.4309 18.6525C21.4628 18.6619 21.4966 18.6627 21.5289 18.6547C21.5612 18.6467 21.5908 18.6303 21.6147 18.6071C21.6385 18.5839 21.6558 18.5548 21.6647 18.5228C21.6736 18.4907 21.6737 18.4569 21.6652 18.4247L20.8346 15.2611C20.777 15.0267 20.7695 14.9827 21.0001 14.6452Z" fill="#21272A"/>
<path d="M14.6504 19.471C14.2896 19.5287 13.9253 19.5608 13.5601 19.5671C11.5711 19.5671 9.69287 19.0421 8.16943 18.0578C7.19492 17.4596 6.349 16.6738 5.68083 15.7459C4.45833 14.1254 3.79177 12.0657 3.79177 9.91041C3.79177 9.76369 3.79693 9.6226 3.80208 9.48103C3.80394 9.43928 3.7929 9.39798 3.77045 9.36273C3.748 9.32747 3.71525 9.29999 3.67663 9.28401C3.63802 9.26803 3.59542 9.26434 3.55463 9.27342C3.51384 9.2825 3.47683 9.30393 3.44865 9.33478C2.32624 10.5629 1.64773 12.1316 1.52147 13.7905C1.39521 15.4495 1.82848 17.1029 2.75208 18.4867C2.86787 18.6634 2.93349 18.7998 2.91333 18.8907L2.25287 22.2779C2.24677 22.3101 2.24923 22.3434 2.25999 22.3743C2.27075 22.4053 2.28945 22.4329 2.3142 22.4544C2.33896 22.4759 2.36892 22.4905 2.40109 22.4968C2.43326 22.5031 2.46652 22.5008 2.49755 22.4903L5.68505 21.354C5.78171 21.3158 5.88497 21.297 5.98889 21.2988C6.09282 21.3006 6.19537 21.3228 6.29068 21.3643C7.24458 21.7393 8.29974 21.9699 9.3549 21.9699C11.3859 21.9766 13.3423 21.205 14.8219 19.8137C14.8525 19.7839 14.8728 19.7452 14.8799 19.7031C14.8869 19.661 14.8805 19.6178 14.8614 19.5797C14.8423 19.5415 14.8115 19.5104 14.7736 19.4909C14.7357 19.4714 14.6925 19.4644 14.6504 19.471Z" fill="#21272A"/>
</svg>
