<svg width="37" height="37" viewBox="0 0 37 37" fill="none" xmlns="http://www.w3.org/2000/svg">
<circle cx="18.5" cy="18.5" r="18.5" fill="#6938EF"/>
<path fill-rule="evenodd" clip-rule="evenodd" d="M19.6501 27.0922L19.6501 13.6411L24.874 18.8649C24.9804 18.9731 25.1073 19.0592 25.2472 19.1182C25.3871 19.1771 25.5373 19.2078 25.6891 19.2084C25.8409 19.209 25.9913 19.1796 26.1317 19.1218C26.272 19.064 26.3996 18.9789 26.5069 18.8716C26.6143 18.7642 26.6993 18.6367 26.7571 18.4963C26.8149 18.356 26.8444 18.2055 26.8437 18.0537C26.8431 17.9019 26.8125 17.7517 26.7535 17.6118C26.6946 17.4719 26.6085 17.3451 26.5003 17.2386L19.3128 10.0511C19.3109 10.0483 19.307 10.0473 19.3041 10.0444C19.1433 9.88677 18.9396 9.77983 18.7185 9.7369C18.4973 9.69397 18.2684 9.71693 18.0602 9.80293C17.9232 9.86043 17.8015 9.94189 17.6961 10.0444L17.6865 10.0511L10.499 17.2386C10.2747 17.4638 10.1636 17.7581 10.1636 18.0513C10.1636 18.2787 10.231 18.501 10.3573 18.69C10.4836 18.8791 10.6631 19.0265 10.8732 19.1136C11.0832 19.2007 11.3144 19.2235 11.5374 19.1793C11.7604 19.135 11.9653 19.0256 12.1262 18.8649L17.3501 13.642L17.3501 27.0932C17.3501 27.3982 17.4713 27.6907 17.6869 27.9064C17.9026 28.122 18.1951 28.2432 18.5001 28.2432C18.8051 28.2432 19.0976 28.122 19.3133 27.9064C19.5289 27.6907 19.6501 27.3982 19.6501 27.0932" fill="white"/>
</svg>
