<svg width="25" height="25" viewBox="0 0 25 25" fill="none" xmlns="http://www.w3.org/2000/svg">
<path d="M11.7148 4.79932H4.71484C4.18441 4.79932 3.6757 5.01003 3.30063 5.3851C2.92556 5.76018 2.71484 6.26888 2.71484 6.79932V20.7993C2.71484 21.3297 2.92556 21.8385 3.30063 22.2135C3.6757 22.5886 4.18441 22.7993 4.71484 22.7993H18.7148C19.2453 22.7993 19.754 22.5886 20.1291 22.2135C20.5041 21.8385 20.7148 21.3297 20.7148 20.7993V13.7993" stroke="white" stroke-width="2" stroke-linecap="round" stroke-linejoin="round"/>
<path d="M19.2148 3.29954C19.6127 2.90172 20.1522 2.67822 20.7148 2.67822C21.2775 2.67822 21.817 2.90172 22.2148 3.29954C22.6127 3.69737 22.8362 4.23693 22.8362 4.79954C22.8362 5.36215 22.6127 5.90172 22.2148 6.29954L12.7148 15.7995L8.71484 16.7995L9.71484 12.7995L19.2148 3.29954Z" stroke="white" stroke-width="2" stroke-linecap="round" stroke-linejoin="round"/>
</svg>
