<svg width="23" height="23" viewBox="0 0 23 23" fill="none" xmlns="http://www.w3.org/2000/svg">
<path fill-rule="evenodd" clip-rule="evenodd" d="M20.0922 10.3499H6.64105L11.8649 5.12602C11.9731 5.01955 12.0592 4.89271 12.1182 4.75282C12.1771 4.61292 12.2078 4.46274 12.2084 4.31093C12.209 4.15913 12.1796 4.0087 12.1218 3.86833C12.064 3.72796 11.9789 3.60042 11.8716 3.49308C11.7642 3.38573 11.6367 3.3007 11.4963 3.24289C11.356 3.18509 11.2055 3.15564 11.0537 3.15626C10.9019 3.15688 10.7517 3.18755 10.6118 3.2465C10.4719 3.30545 10.3451 3.39151 10.2386 3.49973L3.05114 10.6872C3.04826 10.6891 3.0473 10.693 3.04443 10.6959C2.88677 10.8567 2.77983 11.0604 2.7369 11.2815C2.69397 11.5027 2.71693 11.7316 2.80293 11.9398C2.86043 12.0768 2.94189 12.1985 3.04443 12.3039L3.05114 12.3135L10.2386 19.501C10.4638 19.7253 10.7581 19.8364 11.0513 19.8364C11.2787 19.8364 11.501 19.769 11.69 19.6427C11.8791 19.5164 12.0265 19.3369 12.1136 19.1268C12.2007 18.9168 12.2235 18.6856 12.1793 18.4626C12.135 18.2396 12.0256 18.0347 11.8649 17.8738L6.64201 12.6499H20.0932C20.3982 12.6499 20.6907 12.5287 20.9064 12.3131C21.122 12.0974 21.2432 11.8049 21.2432 11.4999C21.2432 11.1949 21.122 10.9024 20.9064 10.6867C20.6907 10.4711 20.3982 10.3499 20.0932 10.3499" fill="#8B95A1"/>
</svg>
