<svg width="28" height="28" viewBox="0 0 28 28" fill="none" xmlns="http://www.w3.org/2000/svg">
<path d="M8.98736 8.26744V1.71852C8.98736 0.769407 9.75677 0 10.7059 0H15.9233C16.8724 0 17.6419 0.769405 17.6419 1.71852V8.26744C17.6419 9.21655 18.4113 9.98595 19.3604 9.98595H25.9093C26.8584 9.98595 27.6278 10.7554 27.6278 11.7045V16.2562C27.6278 17.2053 26.8584 17.9747 25.9093 17.9747H19.3604C18.4113 17.9747 17.6419 18.7441 17.6419 19.6932V25.9093C17.6419 26.8584 16.8724 27.6278 15.9233 27.6278H10.7059C9.75677 27.6278 8.98736 26.8584 8.98736 25.9093V19.3604C8.98736 18.4113 8.21795 17.6419 7.26884 17.6419H1.71852C0.769407 17.6419 0 16.8724 0 15.9233V11.7045C0 10.7554 0.769406 9.98595 1.71852 9.98595H7.26884C8.21795 9.98595 8.98736 9.21655 8.98736 8.26744Z" fill="#6938EF"/>
</svg>
