<svg width="41" height="41" viewBox="0 0 41 41" fill="none" xmlns="http://www.w3.org/2000/svg">
<path d="M20.5 0C9.19642 0 0 9.19642 0 20.5C0 31.8036 9.19642 41 20.5 41C31.8036 41 41 31.8036 41 20.5C41 9.19642 31.8036 0 20.5 0ZM20.6971 9.46154C22.1006 9.46154 23.4726 9.87772 24.6395 10.6575C25.8065 11.4372 26.716 12.5455 27.2531 13.8421C27.7902 15.1388 27.9307 16.5656 27.6569 17.9421C27.3831 19.3186 26.7073 20.583 25.7149 21.5754C24.7224 22.5678 23.458 23.2437 22.0815 23.5175C20.705 23.7913 19.2782 23.6508 17.9815 23.1137C16.6849 22.5766 15.5766 21.6671 14.7969 20.5001C14.0171 19.3331 13.601 17.9612 13.601 16.5577C13.601 14.6757 14.3486 12.8707 15.6794 11.54C17.0102 10.2092 18.8151 9.46154 20.6971 9.46154ZM20.5 37.8462C18.1075 37.8471 15.7407 37.3519 13.5493 36.3918C11.3579 35.4316 9.38946 34.0274 7.76832 32.2678C8.63957 27.7558 16.465 26.8077 20.5 26.8077C24.535 26.8077 32.3604 27.7558 33.2317 32.2668C31.6107 34.0267 29.6423 35.4312 27.4509 36.3916C25.2595 37.3519 22.8926 37.8472 20.5 37.8462Z" fill="#D7D7D7"/>
</svg>
